<svg xmlns="http://www.w3.org/2000/svg" xmlns:xlink="http://www.w3.org/1999/xlink" width="1080" zoomAndPan="magnify" viewBox="0 0 810 809.999993" height="1080" preserveAspectRatio="xMidYMid meet" version="1.0"><defs><clipPath id="27bf39897c"><path d="M 205 200.304688 L 810 200.304688 L 810 609.804688 L 205 609.804688 Z M 205 200.304688 " clip-rule="nonzero"/></clipPath><clipPath id="67c30797e3"><path d="M 17 200.304688 L 810 200.304688 L 810 609.804688 L 17 609.804688 Z M 17 200.304688 " clip-rule="nonzero"/></clipPath><clipPath id="769870c1ba"><path d="M 142 200.304688 L 810 200.304688 L 810 609.804688 L 142 609.804688 Z M 142 200.304688 " clip-rule="nonzero"/></clipPath><clipPath id="252a33a6c5"><path d="M 0 200.304688 L 258 200.304688 L 258 480 L 0 480 Z M 0 200.304688 " clip-rule="nonzero"/></clipPath><clipPath id="ccc09419b4"><path d="M 76 200.304688 L 583 200.304688 L 583 609.804688 L 76 609.804688 Z M 76 200.304688 " clip-rule="nonzero"/></clipPath></defs><path fill="#165b3a" d="M 788.589844 263.339844 L 489.921875 595.371094 L 450.167969 529.769531 Z M 788.589844 263.339844 " fill-opacity="1" fill-rule="nonzero"/><g clip-path="url(#27bf39897c)"><path stroke-linecap="butt" transform="matrix(0.44445, 0, 0, 0.444577, 0.350561, 201.062059)" fill="none" stroke-linejoin="miter" d="M 1773.51669 140.083201 L 1101.521981 886.930589 L 1012.076786 739.371118 Z M 1773.51669 140.083201 " stroke="#231f20" stroke-width="38.849998" stroke-opacity="1" stroke-miterlimit="10"/></g><path fill="#2bb673" d="M 262.078125 292.171875 L 782.96875 264.183594 L 371.851562 584.988281 L 386.917969 414.898438 Z M 262.078125 292.171875 " fill-opacity="1" fill-rule="nonzero"/><g clip-path="url(#67c30797e3)"><path stroke-linecap="round" transform="matrix(0.44445, 0, 0, 0.444577, 0.350561, 201.062059)" fill="none" stroke-linejoin="miter" d="M 588.879815 204.935914 L 1760.869383 141.981072 L 835.867028 863.576232 L 869.766027 480.988281 Z M 588.879815 204.935914 " stroke="#231f20" stroke-width="38.849998" stroke-opacity="1" stroke-miterlimit="10"/></g><g clip-path="url(#769870c1ba)"><path stroke-linecap="round" transform="matrix(0.44445, 0, 0, 0.444577, 0.350561, 201.062059)" fill="none" stroke-linejoin="miter" d="M 1760.869383 141.981072 L 869.766027 480.988281 " stroke="#231f20" stroke-width="38.849998" stroke-opacity="1" stroke-miterlimit="10"/></g><g clip-path="url(#252a33a6c5)"><path stroke-linecap="round" transform="matrix(0.44445, 0, 0, 0.444577, -60.87241, -72.695206)" fill="none" stroke-linejoin="miter" d="M 167.441343 635.18907 C 166.123 641.708609 162.124026 662.673054 159.118203 692.845689 " stroke="#231f20" stroke-width="38.849998" stroke-opacity="1" stroke-miterlimit="10"/></g><path fill="#231f20" d="M 17.597656 287.304688 C 18.863281 305.242188 21.800781 321.859375 26.410156 337.164062 C 26.574219 337.707031 26.683594 338.261719 26.738281 338.824219 C 26.792969 339.390625 26.792969 339.953125 26.734375 340.519531 C 26.679688 341.082031 26.566406 341.636719 26.402344 342.179688 C 26.238281 342.71875 26.019531 343.242188 25.75 343.742188 C 25.484375 344.242188 25.167969 344.710938 24.808594 345.148438 C 24.449219 345.585938 24.046875 345.984375 23.609375 346.339844 C 23.171875 346.699219 22.699219 347.011719 22.199219 347.28125 C 21.699219 347.546875 21.179688 347.761719 20.636719 347.925781 C 20.09375 348.089844 19.539062 348.195312 18.976562 348.25 C 18.410156 348.304688 17.847656 348.304688 17.28125 348.25 C 16.71875 348.191406 16.164062 348.082031 15.625 347.914062 C 15.082031 347.75 14.5625 347.53125 14.0625 347.265625 C 13.5625 346.996094 13.09375 346.679688 12.65625 346.320312 C 12.21875 345.960938 11.820312 345.5625 11.460938 345.121094 C 11.101562 344.683594 10.789062 344.210938 10.523438 343.710938 C 10.257812 343.210938 10.042969 342.691406 9.878906 342.148438 C 4.898438 325.613281 1.730469 307.738281 0.375 288.523438 C 0.335938 287.957031 0.351562 287.394531 0.421875 286.832031 C 0.492188 286.269531 0.617188 285.71875 0.796875 285.179688 C 0.976562 284.640625 1.207031 284.128906 1.488281 283.632812 C 1.769531 283.140625 2.09375 282.683594 2.464844 282.253906 C 2.839844 281.824219 3.246094 281.4375 3.695312 281.089844 C 4.144531 280.742188 4.621094 280.441406 5.128906 280.1875 C 5.636719 279.933594 6.164062 279.734375 6.710938 279.585938 C 7.257812 279.433594 7.8125 279.339844 8.378906 279.300781 C 8.945312 279.261719 9.507812 279.277344 10.070312 279.347656 C 10.632812 279.417969 11.183594 279.542969 11.71875 279.722656 C 12.257812 279.902344 12.773438 280.132812 13.265625 280.414062 C 13.757812 280.695312 14.21875 281.019531 14.644531 281.394531 C 15.074219 281.765625 15.460938 282.175781 15.808594 282.621094 C 16.15625 283.070312 16.457031 283.546875 16.710938 284.054688 C 16.964844 284.5625 17.164062 285.089844 17.3125 285.636719 C 17.464844 286.183594 17.558594 286.742188 17.597656 287.304688 Z M 47.59375 382.207031 C 53.910156 391.378906 61.164062 399.578125 69.363281 406.808594 C 73.777344 410.695312 78.113281 414.125 82.375 417.09375 C 82.839844 417.417969 83.269531 417.785156 83.660156 418.195312 C 84.054688 418.601562 84.402344 419.046875 84.710938 419.523438 C 85.015625 420 85.269531 420.503906 85.476562 421.03125 C 85.683594 421.558594 85.835938 422.101562 85.9375 422.660156 C 86.039062 423.21875 86.082031 423.78125 86.070312 424.347656 C 86.058594 424.914062 85.992188 425.476562 85.871094 426.03125 C 85.75 426.585938 85.574219 427.121094 85.347656 427.640625 C 85.121094 428.160156 84.847656 428.652344 84.523438 429.117188 C 84.199219 429.582031 83.832031 430.011719 83.421875 430.40625 C 83.015625 430.796875 82.570312 431.148438 82.09375 431.453125 C 81.617188 431.757812 81.113281 432.015625 80.585938 432.222656 C 80.058594 432.429688 79.515625 432.582031 78.957031 432.679688 C 78.398438 432.78125 77.835938 432.824219 77.269531 432.8125 C 76.703125 432.804688 76.140625 432.738281 75.589844 432.613281 C 75.035156 432.492188 74.5 432.320312 73.980469 432.09375 C 73.460938 431.863281 72.96875 431.589844 72.503906 431.265625 C 67.707031 427.921875 62.855469 424.089844 57.945312 419.761719 C 48.683594 411.597656 40.492188 402.34375 33.375 392.003906 C 33.050781 391.535156 32.78125 391.042969 32.554688 390.523438 C 32.332031 390 32.160156 389.464844 32.042969 388.910156 C 31.921875 388.355469 31.859375 387.792969 31.851562 387.226562 C 31.84375 386.660156 31.890625 386.097656 31.992188 385.539062 C 32.097656 384.980469 32.253906 384.441406 32.460938 383.914062 C 32.671875 383.386719 32.929688 382.882812 33.238281 382.410156 C 33.546875 381.933594 33.898438 381.492188 34.292969 381.085938 C 34.691406 380.679688 35.121094 380.316406 35.585938 379.992188 C 36.054688 379.671875 36.546875 379.398438 37.070312 379.175781 C 37.589844 378.949219 38.125 378.777344 38.679688 378.660156 C 39.234375 378.542969 39.796875 378.476562 40.363281 378.46875 C 40.929688 378.460938 41.492188 378.507812 42.050781 378.613281 C 42.605469 378.714844 43.148438 378.871094 43.675781 379.082031 C 44.203125 379.289062 44.703125 379.550781 45.179688 379.859375 C 45.65625 380.167969 46.097656 380.519531 46.503906 380.914062 C 46.910156 381.308594 47.273438 381.738281 47.59375 382.207031 Z M 127.074219 436.527344 C 130.464844 437.199219 133.867188 437.699219 137.289062 438.035156 C 149.621094 439.238281 162.480469 438.378906 175.863281 435.453125 C 176.414062 435.332031 176.976562 435.269531 177.542969 435.257812 C 178.109375 435.246094 178.671875 435.292969 179.230469 435.390625 C 179.789062 435.492188 180.332031 435.644531 180.859375 435.851562 C 181.386719 436.058594 181.886719 436.316406 182.367188 436.625 C 182.84375 436.929688 183.285156 437.277344 183.695312 437.671875 C 184.101562 438.066406 184.46875 438.496094 184.792969 438.960938 C 185.113281 439.425781 185.390625 439.917969 185.617188 440.4375 C 185.84375 440.957031 186.015625 441.496094 186.136719 442.050781 C 186.257812 442.601562 186.324219 443.164062 186.335938 443.730469 C 186.347656 444.296875 186.300781 444.859375 186.203125 445.417969 C 186.101562 445.976562 185.949219 446.519531 185.738281 447.046875 C 185.53125 447.574219 185.277344 448.078125 184.96875 448.554688 C 184.664062 449.03125 184.316406 449.476562 183.921875 449.882812 C 183.527344 450.292969 183.097656 450.65625 182.632812 450.980469 C 182.167969 451.304688 181.675781 451.582031 181.15625 451.808594 C 180.636719 452.035156 180.097656 452.207031 179.546875 452.328125 C 164.394531 455.640625 149.75 456.605469 135.613281 455.222656 C 131.632812 454.835938 127.671875 454.253906 123.730469 453.472656 C 123.171875 453.363281 122.632812 453.199219 122.109375 452.984375 C 121.585938 452.769531 121.085938 452.503906 120.613281 452.1875 C 120.144531 451.875 119.707031 451.515625 119.304688 451.117188 C 118.902344 450.714844 118.546875 450.28125 118.230469 449.808594 C 117.914062 449.339844 117.648438 448.839844 117.429688 448.316406 C 117.210938 447.792969 117.046875 447.253906 116.9375 446.699219 C 116.824219 446.140625 116.769531 445.582031 116.769531 445.011719 C 116.765625 444.445312 116.820312 443.886719 116.929688 443.328125 C 117.042969 442.773438 117.203125 442.230469 117.421875 441.707031 C 117.636719 441.183594 117.902344 440.683594 118.214844 440.214844 C 118.53125 439.742188 118.886719 439.304688 119.289062 438.902344 C 119.6875 438.5 120.125 438.144531 120.59375 437.828125 C 121.066406 437.511719 121.5625 437.246094 122.085938 437.027344 C 122.609375 436.808594 123.148438 436.644531 123.703125 436.535156 C 124.261719 436.421875 124.820312 436.367188 125.390625 436.367188 C 125.957031 436.363281 126.515625 436.417969 127.074219 436.527344 Z M 221.332031 416.65625 C 229.550781 411.210938 235.980469 405.414062 240.617188 399.269531 C 245.035156 393.414062 247.382812 387.804688 247.660156 382.4375 C 247.691406 381.871094 247.773438 381.316406 247.914062 380.765625 C 248.054688 380.214844 248.246094 379.683594 248.488281 379.171875 C 248.734375 378.660156 249.023438 378.175781 249.363281 377.722656 C 249.703125 377.269531 250.082031 376.851562 250.503906 376.472656 C 250.925781 376.09375 251.378906 375.757812 251.867188 375.46875 C 252.351562 375.175781 252.863281 374.9375 253.398438 374.746094 C 253.933594 374.558594 254.480469 374.421875 255.039062 374.339844 C 255.601562 374.257812 256.164062 374.234375 256.730469 374.261719 C 257.296875 374.292969 257.855469 374.375 258.40625 374.515625 C 258.953125 374.65625 259.484375 374.847656 259.996094 375.089844 C 260.507812 375.335938 260.992188 375.625 261.445312 375.964844 C 261.898438 376.304688 262.316406 376.683594 262.695312 377.105469 C 263.078125 377.527344 263.410156 377.980469 263.699219 378.46875 C 263.992188 378.957031 264.230469 379.464844 264.421875 380 C 264.609375 380.535156 264.746094 381.082031 264.828125 381.644531 C 264.910156 382.207031 264.933594 382.769531 264.90625 383.335938 C 264.441406 392.222656 260.941406 401 254.398438 409.671875 C 248.574219 417.394531 240.730469 424.519531 230.867188 431.058594 C 230.394531 431.371094 229.894531 431.632812 229.371094 431.847656 C 228.847656 432.0625 228.304688 432.226562 227.75 432.332031 C 227.191406 432.441406 226.632812 432.496094 226.066406 432.492188 C 225.496094 432.492188 224.9375 432.433594 224.382812 432.320312 C 223.824219 432.207031 223.285156 432.042969 222.761719 431.820312 C 222.242188 431.601562 221.746094 431.335938 221.273438 431.019531 C 220.804688 430.699219 220.371094 430.339844 219.96875 429.9375 C 219.570312 429.535156 219.214844 429.097656 218.902344 428.625 C 218.589844 428.152344 218.324219 427.652344 218.109375 427.128906 C 217.894531 426.605469 217.734375 426.0625 217.625 425.507812 C 217.515625 424.949219 217.464844 424.390625 217.464844 423.820312 C 217.46875 423.253906 217.527344 422.695312 217.640625 422.136719 C 217.75 421.582031 217.917969 421.042969 218.136719 420.519531 C 218.355469 419.996094 218.625 419.5 218.941406 419.03125 C 219.257812 418.558594 219.617188 418.125 220.019531 417.726562 C 220.421875 417.328125 220.859375 416.96875 221.332031 416.65625 Z M 224.226562 350.582031 C 221.972656 349.714844 219.773438 349.183594 217.628906 348.980469 C 212.835938 348.53125 207.898438 349.710938 202.820312 352.519531 C 197.652344 355.378906 192.777344 359.640625 188.1875 365.304688 C 187.832031 365.746094 187.433594 366.148438 187 366.507812 C 186.5625 366.871094 186.09375 367.1875 185.597656 367.457031 C 185.097656 367.730469 184.578125 367.949219 184.039062 368.117188 C 183.496094 368.285156 182.941406 368.398438 182.378906 368.457031 C 181.816406 368.515625 181.25 368.519531 180.6875 368.46875 C 180.121094 368.414062 179.570312 368.308594 179.023438 368.148438 C 178.480469 367.984375 177.960938 367.773438 177.457031 367.507812 C 176.957031 367.246094 176.484375 366.933594 176.042969 366.578125 C 175.605469 366.21875 175.203125 365.824219 174.839844 365.386719 C 174.476562 364.953125 174.160156 364.484375 173.890625 363.984375 C 173.621094 363.488281 173.402344 362.96875 173.234375 362.425781 C 173.066406 361.882812 172.953125 361.332031 172.894531 360.765625 C 172.835938 360.203125 172.832031 359.640625 172.882812 359.074219 C 172.933594 358.511719 173.042969 357.957031 173.203125 357.414062 C 173.363281 356.867188 173.578125 356.347656 173.839844 355.84375 C 174.105469 355.34375 174.414062 354.871094 174.773438 354.429688 C 180.773438 347.027344 187.335938 341.351562 194.460938 337.40625 C 202.652344 332.875 210.910156 331.003906 219.246094 331.785156 C 222.960938 332.132812 226.683594 333.023438 230.414062 334.457031 C 230.941406 334.660156 231.445312 334.914062 231.925781 335.214844 C 232.40625 335.515625 232.851562 335.863281 233.261719 336.253906 C 233.671875 336.644531 234.042969 337.070312 234.371094 337.535156 C 234.699219 337.996094 234.976562 338.488281 235.207031 339.003906 C 235.4375 339.523438 235.617188 340.058594 235.742188 340.613281 C 235.867188 341.164062 235.9375 341.726562 235.949219 342.292969 C 235.964844 342.859375 235.925781 343.421875 235.828125 343.980469 C 235.734375 344.539062 235.582031 345.082031 235.378906 345.613281 C 235.179688 346.140625 234.925781 346.648438 234.621094 347.125 C 234.320312 347.605469 233.972656 348.050781 233.582031 348.460938 C 233.195312 348.875 232.765625 349.242188 232.304688 349.570312 C 231.839844 349.898438 231.351562 350.175781 230.832031 350.40625 C 230.316406 350.636719 229.78125 350.816406 229.226562 350.941406 C 228.675781 351.066406 228.113281 351.136719 227.546875 351.152344 C 226.980469 351.167969 226.417969 351.125 225.859375 351.03125 C 225.300781 350.933594 224.757812 350.785156 224.226562 350.582031 Z M 171.585938 408.425781 C 171.257812 423.492188 176.488281 437.808594 187.277344 451.382812 C 187.628906 451.828125 187.9375 452.300781 188.195312 452.804688 C 188.457031 453.308594 188.664062 453.832031 188.820312 454.378906 C 188.976562 454.925781 189.078125 455.480469 189.125 456.042969 C 189.171875 456.609375 189.160156 457.171875 189.097656 457.738281 C 189.035156 458.300781 188.914062 458.851562 188.742188 459.390625 C 188.570312 459.933594 188.34375 460.449219 188.070312 460.945312 C 187.796875 461.441406 187.476562 461.90625 187.109375 462.339844 C 186.742188 462.773438 186.335938 463.164062 185.894531 463.519531 C 185.449219 463.871094 184.976562 464.175781 184.472656 464.4375 C 183.96875 464.695312 183.445312 464.902344 182.898438 465.058594 C 182.355469 465.214844 181.796875 465.316406 181.234375 465.363281 C 180.667969 465.410156 180.105469 465.402344 179.542969 465.339844 C 178.976562 465.273438 178.425781 465.15625 177.886719 464.984375 C 177.347656 464.808594 176.828125 464.585938 176.332031 464.3125 C 175.835938 464.035156 175.375 463.714844 174.941406 463.347656 C 174.507812 462.980469 174.117188 462.578125 173.761719 462.132812 C 167.550781 454.320312 162.785156 446.027344 159.464844 437.253906 C 155.824219 427.625 154.109375 417.890625 154.324219 408.050781 C 154.335938 407.484375 154.402344 406.921875 154.527344 406.367188 C 154.648438 405.816406 154.824219 405.277344 155.050781 404.761719 C 155.28125 404.242188 155.558594 403.75 155.882812 403.285156 C 156.207031 402.820312 156.574219 402.390625 156.984375 402 C 157.394531 401.609375 157.835938 401.257812 158.316406 400.953125 C 158.792969 400.648438 159.296875 400.394531 159.824219 400.191406 C 160.355469 399.984375 160.898438 399.832031 161.457031 399.734375 C 162.015625 399.636719 162.578125 399.59375 163.144531 399.605469 C 163.710938 399.617188 164.269531 399.683594 164.824219 399.808594 C 165.375 399.929688 165.914062 400.105469 166.433594 400.335938 C 166.949219 400.5625 167.441406 400.839844 167.90625 401.164062 C 168.371094 401.488281 168.800781 401.855469 169.191406 402.265625 C 169.582031 402.675781 169.929688 403.121094 170.234375 403.597656 C 170.539062 404.078125 170.796875 404.582031 171 405.109375 C 171.207031 405.636719 171.359375 406.179688 171.457031 406.738281 C 171.554688 407.296875 171.597656 407.859375 171.585938 408.425781 Z M 225.515625 478.59375 C 240.292969 483.363281 255.976562 483.535156 272.570312 479.113281 C 273.121094 478.96875 273.675781 478.878906 274.242188 478.839844 C 274.808594 478.804688 275.371094 478.824219 275.933594 478.898438 C 276.496094 478.972656 277.042969 479.101562 277.582031 479.285156 C 278.117188 479.46875 278.628906 479.703125 279.121094 479.988281 C 279.613281 480.273438 280.070312 480.601562 280.496094 480.976562 C 280.921875 481.351562 281.304688 481.761719 281.652344 482.214844 C 281.996094 482.664062 282.292969 483.144531 282.542969 483.652344 C 282.792969 484.160156 282.988281 484.691406 283.136719 485.238281 C 283.28125 485.785156 283.371094 486.34375 283.410156 486.90625 C 283.445312 487.472656 283.425781 488.039062 283.351562 488.601562 C 283.277344 489.164062 283.148438 489.710938 282.964844 490.25 C 282.78125 490.785156 282.546875 491.296875 282.261719 491.789062 C 281.980469 492.28125 281.648438 492.738281 281.273438 493.164062 C 280.902344 493.589844 280.488281 493.976562 280.039062 494.320312 C 279.589844 494.664062 279.109375 494.960938 278.601562 495.210938 C 278.089844 495.460938 277.5625 495.660156 277.015625 495.804688 C 257.148438 501.097656 238.214844 500.839844 220.214844 495.03125 C 219.675781 494.859375 219.15625 494.632812 218.664062 494.359375 C 218.167969 494.082031 217.703125 493.761719 217.273438 493.394531 C 216.839844 493.027344 216.449219 492.621094 216.097656 492.175781 C 215.742188 491.730469 215.4375 491.253906 215.179688 490.75 C 214.921875 490.246094 214.714844 489.722656 214.558594 489.175781 C 214.40625 488.628906 214.304688 488.074219 214.257812 487.511719 C 214.214844 486.945312 214.222656 486.378906 214.289062 485.816406 C 214.355469 485.253906 214.472656 484.703125 214.648438 484.164062 C 214.820312 483.625 215.046875 483.105469 215.320312 482.609375 C 215.597656 482.113281 215.917969 481.652344 216.285156 481.21875 C 216.652344 480.789062 217.058594 480.394531 217.503906 480.042969 C 217.949219 479.691406 218.421875 479.386719 218.929688 479.128906 C 219.433594 478.867188 219.957031 478.664062 220.503906 478.507812 C 221.046875 478.351562 221.601562 478.25 222.167969 478.207031 C 222.734375 478.160156 223.296875 478.171875 223.859375 478.234375 C 224.421875 478.300781 224.972656 478.421875 225.515625 478.59375 Z M 225.515625 478.59375 " fill-opacity="1" fill-rule="nonzero"/><g clip-path="url(#ccc09419b4)"><path stroke-linecap="round" transform="matrix(0.44445, 0, 0, 0.444577, -60.87241, -72.695206)" fill="none" stroke-linejoin="miter" d="M 858.552029 1204.699743 C 873.335051 1192.003337 886.738208 1177.971392 898.752709 1162.621482 " stroke="#231f20" stroke-width="38.849998" stroke-opacity="1" stroke-miterlimit="10"/></g></svg>